<!-- <svg xmlns="http://www.w3.org/2000/svg" xmlns:xlink="http://www.w3.org/1999/xlink" x="0px" y="0px" width="100%" height="100%" viewBox="87.5 87.5 65 73" xml:space="preserve">
<path fill="#000" d="M122.6,159.883c-1.431,0.822–3.77,0.822–5.201,0l-27.298–15.701c-1.431–0.822–2.601–2.84–2.601–4.483v-31.397 c0–1.647,1.17–3.662,2.601–4.484l27.298–15.7c1.431–0.823,3.77–0.823,5.201,0l27.301,15.7c1.431,0.822,2.6,2.837,2.6,4.484v31.397 c0,1.644–1.169,3.661–2.6,4.483L122.6,159.883z"/>
</svg>
 -->
<svg>
    <defs>
        <pattern id="pattern1" height="100%" width="100%" patternContentUnits="objectBoundingBox">
            <image height="1" width="1" preserveAspectRatio="none" xlink:href="http://upload.wikimedia.org/wikipedia/commons/thumb/b/bc/Gl%C3%BChwendel_brennt_durch.jpg/399px-Gl%C3%BChwendel_brennt_durch.jpg" />
        </pattern>
    </defs>

    <polygon style="stroke: #999DA3;" fill="url(#pattern1)" points="50 1 95 25 95 75 50 99 5 75 5 25"/>
</svg>